<?xml version="1.0" standalone="no"?>
<!DOCTYPE svg PUBLIC "-//W3C//DTD SVG 1.1//EN" "http://www.w3.org/Graphics/SVG/1.1/DTD/svg11.dtd" >
<svg xmlns="http://www.w3.org/2000/svg">
<metadata>Generated by IcoMoon</metadata>
<defs>
<font id="icons" horiz-adv-x="1024">
<font-face units-per-em="1024" ascent="960" descent="-64" />
<missing-glyph horiz-adv-x="1024" />
<glyph unicode="&#x20;" horiz-adv-x="512" d="" />
<glyph unicode="&#xe900;" glyph-name="add" d="M560 832v-335.952l336-0.048v-96l-336 0.048v-336.048h-96v336h-336v96h336v336h96z" />
<glyph unicode="&#xe901;" glyph-name="arrow" d="M128 729.254h448.141l319.859-279.875-319.859-282.634h-448.141v562.508z" />
<glyph unicode="&#xe902;" glyph-name="behance" d="M824.678 832h-624.602c-16.13-0.004-31.835-5.18-44.807-14.766s-22.53-23.079-27.27-38.498v-668.829c3.968-12.896 11.321-24.493 21.293-33.584s22.198-15.344 35.406-18.106h655.346c12.826 2.691 24.733 8.675 34.544 17.366 9.811 8.688 17.19 19.786 21.411 32.192v673.093c-5.059 14.903-14.659 27.848-27.45 37.018-12.794 9.17-28.134 14.105-43.872 14.113zM590.269 504.893c0 2.982 2.435 5.405 5.405 5.405h134.237c2.95 0 5.395-2.422 5.395-5.405v-40.070c-0.006-1.43-0.576-2.8-1.587-3.811-1.011-1.008-2.378-1.581-3.808-1.584h-134.237c-1.43 0-2.803 0.566-3.818 1.578s-1.584 2.384-1.587 3.818v40.070zM533.258 282.63c0-51.152-27.062-75.824-49.805-87.443-24.781-12.698-50.464-13.686-57.766-13.686h-170.397c-1.432 0.010-2.802 0.586-3.814 1.6s-1.584 2.384-1.592 3.818v325.277c0 2.982 2.455 5.414 5.406 5.414h169.3c60.090 0 97.427-35.258 97.427-92.042 0-35.171-17.133-52.045-32.211-60.080 8.381-2.915 15.926-7.827 21.981-14.31 23.626-24.986 21.603-66.768 21.472-68.547zM784.218 287.533c-0.163-1.306-0.797-2.502-1.782-3.37s-2.256-1.344-3.568-1.338h-162.97c1.174-17.866 8.25-30.755 21.034-38.371 11.306-6.707 23.811-7.44 28.614-7.44 0.998 0 1.626 0.042 1.699 0.064 18.707 0 31.984 4.125 39.814 12.266 7.504 7.818 7.299 16.659 7.248 17.037 0 1.488 0.493 2.918 1.549 3.997 0.502 0.528 1.107 0.947 1.779 1.235 0.669 0.288 1.392 0.435 2.118 0.432h57.216c2.995 0 5.427-2.422 5.427-5.414 0-87.565-93.507-92-112.307-92-3.005 0-4.717 0.106-4.717 0.106h-0.054c-42.214 0-75.245 12.31-97.901 36.563-35.507 38.058-32.266 91.299-32.102 93.539 0 0.957 0.15 32.512 16.099 64.528 14.979 29.862 46.867 65.485 114.282 65.485 38.627 0 68.704-11.869 89.242-35.258 37.789-43.088 29.712-109.261 29.28-112.061zM664.544 378.003c-35.312 0-46.966-26.861-50.509-39.331h94.272c-0.883 6.925-3.651 19.094-12.461 27.968-7.504 7.53-18.003 11.363-31.302 11.363zM422.208 327.84h-89.296v-76.106h84.419c15.053 0.378 33.706 5.226 33.706 36.851 0 38.157-25.878 39.254-28.829 39.254zM422.186 450.563c0.701 0 17.555-0.323 17.555-28.419 0-30.787-11.059-33.331-23.456-33.331h-83.373v61.75h89.274z" />
<glyph unicode="&#xe903;" glyph-name="climate" d="M342.154 219.075h339.693v-29.539h-339.693v29.539zM512 832c158.8 0 288-129.199 288-288 0-92.304-43.946-178.371-118.154-232.598v-48.019h-147.693v134.368c83.222 10.893 147.693 82.259 147.693 168.403v29.539c0 12.234-9.92 22.154-22.157 22.154-63.197 0-118.442-34.707-147.69-86.051-29.251 51.344-84.493 86.051-147.693 86.051-12.234 0-22.154-9.92-22.154-22.154v-29.539c0-86.144 64.47-157.51 147.693-168.403v-134.368h-147.693v48.019c-74.208 54.227-118.154 140.294-118.154 232.598 0 158.801 129.2 288 288 288zM386.464 571.581c58.685-10.496 103.382-61.917 103.382-123.581v-5.427c-58.694 10.496-103.382 61.917-103.382 123.581v5.427zM637.536 571.581v-5.427c0-61.664-44.688-113.085-103.382-123.581v5.427c0 61.664 44.698 113.085 103.382 123.581zM342.154 145.229v-14.765c0-36.653 29.814-66.464 66.464-66.464h206.765c36.65 0 66.464 29.811 66.464 66.464v14.765h-339.693z" />
<glyph unicode="&#xe904;" glyph-name="close" d="M832.899 670.161l-222.16-222.161 222.16-222.16-98.739-98.736-222.16 222.16-222.16-222.16-98.738 98.736 222.159 222.16-222.159 222.161 98.738 98.738 222.16-222.159 222.16 222.159 98.739-98.738z" />
<glyph unicode="&#xe905;" glyph-name="discuss" d="M432.499 500.006v-148.672c0-40.989 33.645-74.336 75.002-74.336v0h38.998v-43.114c0-16.422-13.43-29.734-30-29.734h-149.606l-105.366-78.694c-2.788-2.083-5.913-3.021-8.965-3.021-7.77 0-15.061 6.086-15.061 14.893v66.819h-79.5c-16.569 0-30 13.312-30 29.734v236.39c0 16.422 13.431 29.734 30 29.734h274.499zM866 617.459c15.696 0 28.576-11.949 29.888-27.171l0.112-2.566v-236.39c0-15.558-12.054-28.323-27.411-29.626l-2.589-0.109h-79.501v-66.816c0-8.81-7.29-14.896-15.059-14.896-2.445 0-4.931 0.602-7.258 1.907l-1.709 1.114-105.366 78.694h-149.606c-15.699 0-28.579 11.946-29.891 27.168l-0.109 2.566v236.39c0 15.558 12.054 28.323 27.411 29.626l2.589 0.109h358.499zM691.251 773.565c15.696 0 28.576-11.948 29.888-27.169l0.112-2.566v-81.77h-213.75c-40.102 0-72.954-31.357-74.909-70.634l-0.093-3.702v-43.117h-129.749v199.223c0 15.558 12.055 28.325 27.413 29.626l2.586 0.109h358.502z" />
<glyph unicode="&#xe906;" glyph-name="double-forward" d="M128 832l384-384-384-384v768zM512 832l384-384-384-384v768z" />
<glyph unicode="&#xe907;" glyph-name="education" d="M849.344 535.059l-1.542-237.725c27.245-9.174 47.13-34.509 48.157-64.56l0.042-2.448v-70.752c0-11.946-9.315-21.722-21.078-22.454l-1.421-0.045h-96.4c-11.949 0-21.722 9.315-22.454 21.078l-0.045 1.421v70.752c0 30.298 19.168 56.189 46.006 66.227l2.192 0.781-3.203 212.851 49.747 24.874zM751.402 504.077v-153.251c0-5.965-2.371-11.686-6.592-15.907-62.179-62.189-144.854-96.435-232.8-96.435-87.942 0-170.627 34.246-232.819 96.432-4.22 4.221-6.59 9.942-6.59 15.91v153.251l218.062-72.688c12.774-4.256 27.776-4.963 42.682 0l218.058 72.688zM517.366 758.275l1.747-0.505 361.501-120.5c9.19-3.062 15.386-11.661 15.386-21.344 0-9.146-5.53-17.325-13.882-20.784l-1.504-0.56-361.501-120.499c-2.307-0.771-4.71-1.155-7.114-1.155-1.802 0-3.603 0.214-5.366 0.65l-1.747 0.506-361.501 120.499c-9.189 3.062-15.386 11.658-15.386 21.344 0 9.149 5.527 17.325 13.883 20.784l1.503 0.56 361.501 120.5c4.038 1.345 8.368 1.514 12.48 0.505z" />
<glyph unicode="&#xe908;" glyph-name="email" d="M128.26 99.082l-0.26 436.662 262.47-197.853-262.21-238.81zM480.637 821.58l-333.656-231.433 295.602-222.826h138.675l286.918 229.213-324.512 225.046c-20.026 13.893-43.002 13.893-63.027 0zM633.123 338.522l262.877 210.022v-449.462l-262.877 239.44zM444.026 312.458l-272.798-248.458h681.819l-272.806 248.458h-136.214z" />
<glyph unicode="&#xe909;" glyph-name="emotional-intelligence" d="M588.099 424.496c-2.31-50.944 38.592-94.144 89.136-94.003 49.645-0.138 89.978 41.53 89.219 91.283l-0.083 2.72h44.426c76.176-29.984 83.043-140.483 3.584-172.314-10.326-4.080-16.822-14.381-16.061-25.459 0.173-2.49 0.253-4.499 0.253-6.326 0-47.168-36.442-85.958-82.646-89.763 0.986 7.341 1.514 14.813 1.514 22.211-1.338 33.802-49.635 33.811-50.979 0 0-12.701-2.224-26.931-6.109-37.53-16.976-46.413-79.626-70.989-117.699-31.77l-1.795 1.914v339.037h47.242zM264.003 424.496c-6.176-52.611 35.829-100.269 88.439-99.898 52.618-0.368 94.608 47.28 88.442 99.898h48.995v-337.152c-17.168-13.971-42.269-23.27-64.352-23.341-38.397-0.326-72.557 22.864-84.314 57.971-2.838 8.422-4.611 19.066-8.848 48.922-1.974 13.939-14.881 23.638-28.815 21.654-13.938-1.978-23.633-14.877-21.655-28.816 1.316-9.274 2.427-16.96 3.45-23.53-44.195 11.718-74.271 59.398-63.748 105.622 2.639 12.374-4.205 24.816-16.071 29.213-70.802 26.752-67.059 128.47 5.753 149.456h52.723zM487.786 813.142l2.093-1.846v-139.053c0-10.092 5.955-19.233 15.184-23.313 9.232-4.077 20-2.331 27.462 4.462 24.448 22.325 63.373 4.021 63.245-29.084 0.128-33.11-38.79-51.411-63.245-29.085-7.462 6.794-18.23 8.544-27.462 4.464-8.653-3.827-14.426-12.102-15.114-21.437l-0.070-1.878v-100.896h-84.461c-9.357 0-17.962-5.123-22.416-13.354-4.454-8.227-4.045-18.237 1.072-26.070 16.806-25.114-1.443-60.733-31.632-60.477-30.186-0.259-48.434 35.363-31.629 60.477 5.114 7.834 5.526 17.84 1.072 26.070-4.157 7.68-11.93 12.659-20.555 13.286l-1.86 0.067h-87.555c-64.606 22.691-79.7 110.317-27.181 153.504 8.245-19.472 20.988-36.934 37.15-50.336 10.774-8.95 26.868-7.53 35.893 3.347 8.986 10.838 7.486 26.909-3.35 35.894-87.509 80.84 42.981 208.568 135.238 116.85 9.024-10.881 25.12-12.298 35.891-3.35 10.835 8.988 12.336 25.055 3.35 35.892-13.405 16.164-30.87 28.91-50.349 37.155 26.986 31.621 77.44 35.723 109.229 8.71zM682.707 775.067c4.083-10.332 14.403-16.83 25.469-16.063 52.013 3.788 96.541-38.297 96.416-89.847 0-6.314-0.675-12.671-1.997-18.892-2.637-12.376 4.205-24.815 16.070-29.215 47.626-16.499 68.694-81.222 34.307-119.942-9.626-11.203-22.954-19.814-37.997-24.653l-3.251-0.976h-77.722c-18.768 0.17-31.363-20.278-22.765-36.963 13.2-25.21-5.67-57.411-34-57.043-28.336-0.371-47.2 31.834-34.003 57.043 3.984 7.901 3.584 17.302-1.056 24.838-4.31 6.998-11.702 11.453-19.821 12.054l-1.885 0.070h-79.613v60.57c54.154-11.072 106.451 32.563 105.891 88.259 0.547 54.803-50.061 97.911-103.274 88.749l-2.618-0.493v98.298c45.642 39.711 120.445 21.062 141.846-35.794z" />
<glyph unicode="&#xe90a;" glyph-name="facebook" d="M853.61 832h-683.22c-11.243 0-22.024-4.466-29.974-12.416s-12.416-18.731-12.416-29.974v-683.233c0.003-11.238 4.47-22.019 12.419-29.965 7.949-7.949 18.73-12.413 29.97-12.413h367.819v297.408h-100.086v115.904h100.086v85.482c0 99.201 60.586 153.206 149.078 153.206 42.387 0 78.816-3.147 89.44-4.565v-103.668l-61.376-0.032c-48.128 0-57.44-22.87-57.44-56.429v-74.003h114.771l-14.944-115.904h-99.827v-297.398h195.712c11.238 0.003 22.019 4.47 29.965 12.419 7.949 7.949 12.413 18.73 12.413 29.971v683.22c0 11.243-4.467 22.024-12.416 29.974s-18.73 12.416-29.974 12.416v0z" />
<glyph unicode="&#xe90b;" glyph-name="fellowships" d="M512 813.563c4.422 0 8.557-2.044 11.242-5.469l1.059-1.551 111.232-225.381 248.726-36.144c5.165-0.749 9.456-4.368 11.069-9.331 1.411-4.342 0.56-9.059-2.179-12.611l-1.29-1.446-179.978-175.434 42.49-247.728c0.883-5.142-1.232-10.346-5.456-13.411-3.696-2.685-8.445-3.331-12.669-1.821l-1.776 0.778-222.47 116.96-222.469-116.954c-4.62-2.432-10.22-2.029-14.444 1.040-3.696 2.685-5.777 7.002-5.647 11.485l0.193 1.93 42.489 247.722-179.977 175.434c-3.74 3.642-5.087 9.091-3.474 14.058 1.411 4.346 4.874 7.658 9.179 8.922l1.893 0.41 248.726 36.144 111.232 225.381c2.57 4.35 7.245 7.020 12.298 7.020zM514.794 571.718h-5.584c-20.726 0-40.496-8.717-54.474-24.022-13.046-14.285-19.92-33.075-19.258-52.298l0.259-4.125 2.79-30.714c1.075-11.786 4.966-23.117 11.322-33.046l2.499-3.658-29.251-13.382c-28.154-12.848-46.637-40.317-48.115-71.014l-0.096-3.853v-51.827c0-6.992 5.232-12.758 11.99-13.606l1.722-0.106h246.806c6.989 0 12.758 5.229 13.603 11.99l0.109 1.722v51.827c-0.045 30.938-17.395 59.126-44.717 73.178l-3.469 1.68-29.277 13.395c6.963 9.568 11.514 20.653 13.286 32.31l0.531 4.394 2.794 30.717c1.872 20.64-5.024 41.114-19.002 56.419-13.978 15.302-33.747 24.019-54.47 24.019zM549.59 403.802l39.958-18.285c18.522-8.451 30.768-26.397 32.035-46.534l0.109-3.376v-38.118h-219.382v38.118c0.038 20.368 11.318 38.947 29.139 48.429l3.030 1.498 39.93 18.269c23.168-13.773 52.016-13.773 75.181 0zM514.794 544.298c13.021 0 25.443-5.478 34.224-15.094s13.11-22.483 11.93-35.453l-2.79-30.714c-2.067-23.92-22.144-42.253-46.157-42.144-24.013-0.109-44.090 18.224-46.157 42.15l-2.794 30.714c-1.178 12.966 3.155 25.834 11.936 35.45 8.781 9.613 21.203 15.091 34.224 15.091h5.584z" />
<glyph unicode="&#xe90c;" glyph-name="fitler" d="M422.003 424.013v-337.501c0-18.093 20.179-28.586 34.976-18.72l135.002 90c6.262 4.176 10.019 11.206 10.019 18.72v247.501h-179.997zM849.494 832h-674.987c-12.436 0-22.5-10.064-22.5-22.5v-67.5h719.986v67.5c0 12.436-10.064 22.5-22.499 22.5zM165.192 697.001l224.99-227.989h243.632l224.995 227.989h-693.618z" />
<glyph unicode="&#xe90d;" glyph-name="five" d="M781.472 832h-492.731l-58.536-411.734 193.821-24.742 3.005 5.072c9.354 15.789 21.533 27.821 36.63 36.24 15.123 8.435 32.339 12.666 51.792 12.666 27.475 0 47.914-7.664 61.952-22.826 14.182-15.315 21.408-37.571 21.408-67.197 0-33.558-7.635-58.957-22.605-76.518-14.71-17.258-35.354-25.882-62.659-25.882-28.79 0-50.714 8.17-66.365 24.387-15.088 15.638-25.056 39.168-29.661 70.813l-2.029 15.133-218.612-46.621 1.305-8.384c12.4-79.616 46.715-141.187 102.876-184.211 55.94-42.858 129.086-64.195 219.147-64.195 93.552 0 168.269 26.16 223.664 78.605 55.491 52.534 83.235 123.123 83.235 211.162 0 71.331-19.645 128.118-59.085 169.878-39.546 41.872-93.802 62.778-162.15 62.778-36.054 0-69.117-6.253-99.117-18.781l-5.968-2.598c-19.709-8.925-37.45-20.518-53.197-34.762l-1.501-1.379 17.104 113.839 317.222-0.014 1.053 189.273zM763.434 814.069l-0.861-153.39-314.81-0.014-24.589-163.571h17.293l6.794 7.619c18.512 20.144 40.656 35.622 66.41 46.378 27.747 11.584 58.461 17.392 92.205 17.392 63.645 0 113.142-19.072 149.11-57.155 36.074-38.198 54.186-90.557 54.186-157.562 0-83.299-25.875-149.139-77.629-198.138-51.846-49.085-122.128-73.69-211.331-73.69-86.349 0-155.667 20.221-208.239 60.496l-4.702 3.693c-46.469 37.414-76.12 89.142-89.004 155.562l-0.948 5.126 183.052 39.034-0.614 3.946c5.123-35.19 16.544-62.157 34.518-80.784 19.251-19.952 45.872-29.869 79.274-29.869 32.339 0 58.022 10.73 76.31 32.179 18.026 21.146 26.89 50.643 26.89 88.157 0 33.83-8.637 60.435-26.182 79.386-17.693 19.107-42.941 28.576-75.114 28.576-22.432 0-42.656-4.973-60.528-14.941l-4.074-2.381c-13.363-8.189-24.694-18.925-33.949-32.147l-2.15-3.171-164.241 20.966 53.8 378.303h459.123z" />
<glyph unicode="&#xe90e;" glyph-name="four" d="M731.328 832l-0.003-446.544 106.554-0.010v-182.928l-106.554 0.013 0.003-138.531h-227.485l-0.013 138.531-317.709-0.013v181.651l330.964 447.83h214.243zM713.072 813.753h-186.784l-321.921-435.599v-157.37l317.729-0.010-0.013-138.518h190.989v138.518l106.547 0.010v146.416l-106.547-0.010v446.562zM532.752 647.714v-280.524h-194.122l194.122 280.524zM514.49 589.264l-141.027-203.808h141.027v203.808z" />
<glyph unicode="&#xe90f;" glyph-name="home" d="M512 675.016l323.786-186.936v-275.795h-352.928v258.214h-199.929v-258.214h-94.715v275.795l323.786 186.936zM437.859 425.501v-213.216h-109.93v213.216h109.93zM741.072 470.499h-199.93v-148.285h199.93v148.285zM696.074 425.501v-58.285h-109.93v58.285h109.93zM379.571 832v-76.458l132.429 76.458 383.997-221.702v-105.021l-383.997 221.701-383.997-221.701v105.021l103.282 59.632v162.071h148.286zM128 167.286h768v-103.286h-768v103.286z" />
<glyph unicode="&#xe910;" glyph-name="how-work" d="M486.4 358.128c5.072 0 9.51-3.802 10.304-8.87l3.488-20.749c0.79-4.118 3.805-7.443 7.766-8.87 5.866-1.901 11.414-4.275 16.806-7.126 3.962-1.901 8.56-1.744 12.048 0.79l16.646 11.878c4.122 2.851 9.827 2.378 13.475-1.264l19.341-19.325c3.645-3.642 4.122-9.344 1.11-13.462l-12.208-16.947c-2.538-3.485-2.854-7.92-0.95-11.722 2.694-5.386 5.072-11.088 6.816-16.947 1.267-4.118 4.598-7.126 8.877-7.92l20.134-3.485c5.072-0.79 8.877-5.226 8.403-10.294v-27.558c0-5.069-3.805-9.504-8.877-10.298l-20.768-3.485c-4.125-0.79-7.453-3.802-8.88-7.76-1.901-5.859-4.278-11.405-7.133-16.787-2.061-3.802-1.904-8.397 0.634-11.882l11.731-16.63c2.854-4.118 2.378-9.821-1.267-13.462l-19.341-19.325c-3.648-3.642-9.354-4.118-13.475-1.107l-16.963 12.195c-3.331 2.374-7.926 2.694-11.731 0.794-5.232-2.694-10.624-4.912-16.173-6.653-4.122-1.267-7.133-4.595-7.926-8.87l-3.488-20.275c-0.95-5.069-5.232-8.71-10.461-8.71h-27.587c-5.072 0-9.51 3.802-10.304 8.87l-3.328 20.432c-0.794 4.118-3.648 7.603-7.77 8.87-5.866 1.898-11.571 4.275-16.963 7.126-3.645 1.901-8.243 1.584-11.731-0.79l-16.963-11.882c-4.122-2.851-9.827-2.374-13.475 1.267l-19.341 19.325c-3.645 3.642-4.122 9.344-1.11 13.462l12.048 16.79c2.381 3.325 2.698 7.917 0.794 11.718-2.851 5.546-5.072 11.248-6.976 17.107-1.267 3.958-4.755 6.97-8.877 7.76l-20.451 3.485c-5.072 0.95-8.72 5.226-8.72 10.454v27.558c0.32 4.912 4.122 9.347 9.037 10.138l20.451 3.328c4.122 0.79 7.61 3.642 8.877 7.76 1.904 5.859 4.282 11.562 7.136 16.947 1.901 3.642 1.584 8.237-0.794 11.722l-11.888 16.947c-2.854 4.118-2.381 9.821 1.267 13.462l19.341 19.322c3.645 3.645 9.354 4.118 13.475 1.11l16.803-12.038c3.488-2.534 8.086-2.691 11.891-0.79 5.549 2.851 11.414 5.226 17.597 7.126 4.282 1.267 7.293 4.592 8.086 8.87l3.488 19.958c0.95 5.066 5.232 8.71 10.461 8.71h27.587zM470.864 271.965c-33.453-0.317-60.403-27.718-60.086-61.139s27.744-60.346 61.194-60.029c33.453 0.317 60.403 27.718 60.086 61.139-0.317 33.418-27.744 60.346-61.194 60.029zM701.526 431.661l1.046-0.070 18.813-2.864c3.51-0.477 6.061-3.498 6.221-6.998l0.317-14.477c0.16-2.864 1.914-5.571 4.467-6.842 3.824-1.91 7.491-4.138 10.842-6.525 2.39-1.75 5.581-2.067 8.291-0.634l12.435 6.522c3.19 1.59 7.018 0.794 9.088-2.070l11.482-15.27c2.074-2.864 1.754-6.842-0.637-9.386l-10.045-10.502c-2.074-2.067-2.71-5.248-1.757-7.955 1.277-3.978 2.394-8.115 3.030-12.25 0.48-2.864 2.394-5.251 5.261-6.205l13.395-4.294c3.347-1.114 5.581-4.458 4.784-7.955l-1.437-9.389-1.434-9.386c-0.48-3.501-3.507-6.045-7.018-6.205l-14.509-0.317c-2.87-0.16-5.581-1.91-6.854-4.454-1.914-3.818-4.147-7.478-6.538-10.819-1.754-2.547-2.074-5.568-0.64-8.272l6.538-12.57c1.597-3.181 0.797-7.002-2.070-9.069l-15.309-11.456c-2.87-2.067-6.854-1.75-9.408 0.637l-10.522 10.026c-2.074 2.067-5.104 2.704-7.974 1.747-3.824-1.27-7.811-2.387-11.798-3.021-2.87-0.637-5.261-2.547-6.218-5.411l-4.304-13.52c-1.117-3.344-4.464-5.411-7.974-4.934l-18.813 2.864c-3.507 0.477-6.061 3.501-6.218 7.002l-0.32 14.317c-0.16 2.864-1.754 5.568-4.464 6.842-3.827 1.91-7.494 4.138-11.002 6.522-2.394 1.75-5.581 1.91-8.131 0.637l-12.758-6.522c-3.187-1.59-7.014-0.797-9.088 2.067l-11.478 15.274c-2.074 2.864-1.754 6.842 0.637 9.386l9.885 10.342c2.074 2.067 2.71 5.251 1.754 7.955-1.434 4.134-2.55 8.115-3.187 12.41-0.48 2.864-2.394 5.248-5.264 6.205l-13.712 4.294c-3.347 1.114-5.421 4.454-4.941 7.955l2.87 18.774c0.637 3.341 3.667 5.885 7.174 6.045l14.349 0.317c2.87 0.16 5.581 1.75 6.858 4.454 1.914 3.821 4.144 7.478 6.538 10.979 1.754 2.387 1.914 5.568 0.637 8.112l-6.538 12.73c-1.594 3.181-0.797 6.998 2.074 9.069l15.306 11.453c2.87 2.070 6.858 1.75 9.408-0.634l10.365-9.866c2.23-2.070 5.261-2.704 8.131-1.75 4.144 1.43 8.451 2.547 12.755 3.181 3.030 0.48 5.421 2.547 6.378 5.411l4.307 13.363c1.114 3.341 4.464 5.408 7.971 4.931l-1.046 0.070zM701.936 370.976c-22.963 3.024-44.010-13.206-47.037-36.115-3.030-22.909 13.232-43.91 36.192-46.931 22.96-3.024 44.010 13.203 47.037 36.115 3.030 22.909-13.232 43.907-36.192 46.931zM510.25 823.113c4.458 7.463 13.53 10.797 21.491 7.78l43.302-16.196c7.962-3.017 12.736-11.272 11.146-19.846l-6.528-34.137c-1.434-7.145 1.434-14.291 7.165-18.736 8.278-6.51 16.077-13.655 23.242-21.753 4.778-5.398 12.259-7.78 19.264-5.875l33.114 8.891c8.438 2.223 17.194-1.905 20.858-9.844l19.421-41.917c3.504-7.78 0.957-17.149-6.208-22.071l-29.293-19.847c-5.891-4.128-8.915-10.957-8.122-18.099 1.117-10.323 1.434-20.483 0.957-30.646-0.32-7.302 3.344-14.288 9.712-17.782l29.93-16.829c7.482-4.448 10.826-13.498 7.802-21.437l-16.24-43.187c-3.024-7.939-11.302-12.704-19.901-11.114l-34.704 6.666c-6.848 1.27-14.010-1.427-18.47-6.986-6.368-7.939-13.53-15.402-21.171-22.387-5.254-4.765-7.642-12.067-5.731-19.053l8.915-33.027c2.227-8.413-1.91-17.146-9.872-20.8l-42.029-19.37c-7.802-3.494-17.194-0.954-22.128 6.192l-19.901 29.216c-4.141 5.875-10.986 8.89-18.15 8.096-10.189-1.11-20.538-1.427-30.726-0.954-7.162 0.32-14.010-3.331-17.67-9.523l-17.194-29.693c-4.458-7.462-13.533-10.797-21.491-7.782l-43.306 16.198c-7.958 3.014-12.736 11.27-11.142 19.846l6.685 34.611c1.434 6.989-1.43 14.134-7.005 18.579-7.642 6.032-14.803 12.861-21.491 20.163-4.774 5.242-12.099 7.622-19.104 5.718l-33.592-9.050c-8.438-2.224-17.194 1.904-20.856 9.843l-19.422 41.917c-3.502 7.779-0.955 17.149 6.209 22.070l28.656 19.213c6.050 3.968 9.075 10.957 8.279 18.099-1.274 10.323-1.592 20.643-1.114 30.963 0.318 7.146-3.184 13.814-9.393 17.466l-30.248 17.466c-7.483 4.445-10.826 13.496-7.801 21.435l16.239 43.189c3.025 7.939 11.303 12.701 19.9 11.114l34.387-6.51c7.005-1.429 14.169 1.429 18.627 6.986 6.37 8.098 13.531 15.72 21.173 22.706 5.414 4.763 7.642 12.225 5.731 19.052l-9.072 33.502c-2.39 8.415 1.75 17.148 9.709 20.8l20.538 9.845 21.014 9.685c7.802 3.176 17.037 0.476 21.811-6.51l19.581-28.739c3.981-6.034 10.986-9.050 18.15-8.256 10.349 1.27 20.698 1.588 31.043 1.111 7.165-0.318 13.853 3.175 17.514 9.367l17.514 30.169zM559.283 634.483c-24.198 50.81-85.174 72.404-136.118 48.269s-72.595-84.944-48.397-135.754c24.198-50.81 85.171-72.403 136.118-48.269 50.944 24.134 72.595 84.944 48.397 135.754z" />
<glyph unicode="&#xe911;" glyph-name="id-card" horiz-adv-x="993" d="M393.216 661.81l6.82-87.274h-1.735c-12.049 0-21.817-9.768-21.817-21.817 0-11.568 9.002-21.032 20.384-21.771l1.434-0.047h196.366c12.049 0 21.817 9.768 21.817 21.817 0 11.568-9.002 21.032-20.384 21.774l-1.434 0.043h-1.735l6.82 87.274h189.096c43.325 0 78.715-34.619 79.965-77.646l0.034-2.355v-392.726c0-43.325-34.617-78.718-77.644-79.968l-2.355-0.034h-584.728c-43.324 0-78.716 34.621-79.966 77.647l-0.034 2.355v392.726c0 43.325 34.618 78.716 77.645 79.967l2.355 0.034h189.095zM336.486 501.81c-52.134 0-94.547-42.412-94.547-94.546 0-22.82 8.126-43.774 21.636-60.127-37.557-16.542-64.098-53.642-65.235-96.973l-0.038-2.898v-29.091c0-11.568 9.003-21.035 20.383-21.774l1.435-0.047h232.729c11.565 0 21.032 9.005 21.771 20.384l0.047 1.437v29.091c0 44.572-26.882 82.963-65.272 99.871 13.507 16.353 21.634 37.308 21.634 60.127 0 52.134-42.412 94.546-94.543 94.546zM780.12 269.082h-203.636c-12.049 0-21.817-9.768-21.817-21.817 0-11.568 9.002-21.035 20.384-21.774l1.434-0.047h203.636c12.052 0 21.821 9.771 21.821 21.821s-9.768 21.817-21.821 21.817zM365.574 312.717c36.094 0 65.455-29.361 65.455-65.452v-7.274h-189.090v7.274c0 36.091 29.363 65.452 65.454 65.452h58.18zM780.12 370.899h-203.636c-12.049 0-21.817-9.768-21.817-21.817 0-11.568 9.002-21.032 20.384-21.771l1.434-0.047h203.636c12.052 0 21.821 9.768 21.821 21.817s-9.768 21.817-21.821 21.817zM336.486 458.172c28.117 0 50.908-22.792 50.908-50.908s-22.792-50.908-50.908-50.908c-28.118 0-50.91 22.792-50.91 50.908s22.793 50.908 50.91 50.908zM780.12 472.719h-203.636c-12.049 0-21.817-9.768-21.817-21.817 0-11.568 9.002-21.035 20.384-21.774l1.434-0.047h203.636c12.052 0 21.821 9.771 21.821 21.821s-9.768 21.817-21.821 21.817zM547.393 757.716c6.085 0 11.888-2.538 16.018-7.002 3.714-4.020 5.772-9.271 5.8-14.7l-0.065-1.815-19.98-159.663h-105.36l-19.98 159.663c-0.475 6.062 1.604 12.049 5.734 16.515 3.755 4.058 8.893 6.525 14.367 6.94l1.651 0.063h101.817z" />
<glyph unicode="&#xe912;" glyph-name="image" horiz-adv-x="993" d="M821.561 718.878h-650.156c-26.113 0-47.285-20.868-47.285-46.608v-477.741c0-25.74 21.172-46.608 47.285-46.608h650.156c26.115 0 47.287 20.868 47.287 46.608v477.741c0 25.74-21.172 46.608-47.287 46.608zM821.561 672.27v-338.973l-93.184 83.512c-14.007 12.549-35.545 12.046-48.925-1.157l-94.314-92.945-185.952 218.944c-14.057 16.545-39.803 16.707-54.070 0.36l-173.71-198.997v329.258h650.156zM620.606 549.922c0 35.399 29.1 64.087 65.015 64.087 35.911 0 65.015-28.688 65.015-64.087s-29.1-64.087-65.015-64.087c-35.911 0-65.015 28.688-65.015 64.087z" />
<glyph unicode="&#xe913;" glyph-name="instagram" d="M736 800c70.691 0 128-57.308 128-128v-448c0-70.691-57.309-128-128-128h-448c-70.692 0-128 57.309-128 128v448c0 70.692 57.308 128 128 128h448zM528 640h-32c-94.832 0-172.144-75.002-175.859-168.922l-0.141-7.078v-32c0-94.832 75.002-172.144 168.922-175.859l7.078-0.141h32c94.832 0 172.144 75.002 175.859 168.922l0.141 7.078v32c0 97.203-78.797 176-176 176zM516.8 576c68.042 0 123.2-55.158 123.2-123.2v-9.6c0-68.042-55.158-123.2-123.2-123.2h-9.6c-68.042 0-123.2 55.158-123.2 123.2v9.6c0 68.042 55.158 123.2 123.2 123.2h9.6zM736 704h-32c-16.41 0-29.936-12.354-31.786-28.268l-0.214-3.732v-32c0-16.41 12.355-29.936 28.269-31.786l3.731-0.214h32c16.41 0 29.936 12.355 31.786 28.269l0.214 3.731v32c0 17.673-14.326 32-32 32z" />
<glyph unicode="&#xe914;" glyph-name="intrapreneurship" d="M519.446 786.517c0.989-0.008 1.814-0.022 2.262-0.042 99.856-3.128 161.696-110.153 116.989-199.16l-41.997-83.738h-59.178v36.378l40.134 39.99c7.99 7.981 7.978 20.902-0.035 28.864-8.010 7.962-20.982 7.946-28.973-0.035l-31.603-31.482-31.648 31.482c-8.090 7.517-20.659 7.296-28.458-0.47-7.798-7.77-8.019-20.294-0.502-28.333l40.134-39.981v-36.378h-59.158l-42.042 83.702c-44.64 89.007 17.2 196.032 117.053 199.16 0.432 0.020 1.245 0.033 2.224 0.042h4.797zM654.797 811.901c6.65 6.604 17.389 6.586 24.013-0.041 6.627-6.627 6.64-17.364 0.035-24.010l-16.547-16.553c-6.643-6.642-17.411-6.642-24.054 0-6.64 6.642-6.64 17.41 0 24.051l16.554 16.553zM355.296 811.86c6.643 6.642 17.411 6.642 24.054 0l16.547-16.548c6.605-6.647 6.592-17.386-0.035-24.013-6.624-6.628-17.363-6.646-24.013-0.041l-16.554 16.548c-6.64 6.642-6.64 17.412 0 24.054zM512 816.842c11.149 0.029 20.179 8.048 20.211 17.949v24.732c0 9.914-9.050 17.95-20.211 17.95s-20.211-8.036-20.211-17.95v-24.732c0.010-9.91 9.053-17.942 20.211-17.949zM701.747 624.842h24.717c9.917 0 17.958 9.050 17.958 20.211s-8.042 20.211-17.958 20.211h-24.717c-9.917 0-17.958-9.048-17.958-20.211s8.042-20.211 17.958-20.211zM297.537 624.842h24.716c9.917 0 17.958 9.050 17.958 20.211s-8.042 20.211-17.958 20.211h-24.716c-9.918 0-17.958-9.048-17.958-20.211s8.040-20.211 17.958-20.211zM532.211 432.842l97.478-140.352c4.333-6.224 11.718-9.51 19.181-8.531l166.288 21.949v-207.44c0-6.301-4.266-11.786-10.317-13.264l-272.63-66.675v414.314zM811.61 473.264c4.214 0 8.186-1.997 10.742-5.395l70.88-94.314c2.922-3.888 3.584-9.062 1.731-13.578-1.85-4.515-5.93-7.686-10.71-8.326l-226.858-29.968-104.973 151.581h259.187zM491.789 432.842v-414.314l-272.628 66.618c-6.054 1.482-10.319 6.966-10.319 13.267v207.482l166.313-21.949c7.456-0.97 14.832 2.301 19.181 8.506l97.453 140.39zM471.578 473.264l-104.96-151.581-226.829 29.962c-4.793 0.624-8.892 3.798-10.75 8.323s-1.192 9.712 1.747 13.6l70.819 94.298c2.555 3.402 6.53 5.398 10.746 5.398h259.228z" />
<glyph unicode="&#xe915;" glyph-name="justice" horiz-adv-x="993" d="M496.485 805.771c23.428 0 42.549-18.45 43.622-41.615l0.047-2.056v-53.304h212.455l60.863-169.685h-46.359l-29.86 83.245-29.857-83.245h-46.359l45.214 126.049h-166.096v-385.813h-87.341v385.813h-166.095l45.213-126.049h-46.359l-29.86 83.245-29.858-83.245h-46.359l60.863 169.685h212.454v53.304c0 24.119 19.552 43.671 43.672 43.671zM387.305 495.473v-13.979c0-72.558-59.032-131.59-131.592-131.59-71.552 0-129.949 57.403-131.558 128.577l-0.034 3.013v13.979h263.184zM868.848 495.473v-13.976c0-72.561-59.032-131.593-131.593-131.593s-131.593 59.032-131.593 131.593v13.976h263.187zM241.753 126.551h509.463v-65.524h-509.463v65.524zM285.424 235.712h422.116v-65.524h-422.116v65.524z" />
<glyph unicode="&#xe916;" glyph-name="linkedin" d="M839.114 832h-654.42c-31.296 0-56.693-24.8-56.693-55.339v-657.247c0-30.582 25.397-55.414 56.693-55.414h654.42c31.318 0 56.886 24.832 56.886 55.414v657.247c0 30.539-25.568 55.339-56.886 55.339zM355.776 177.558h-113.963v366.496h113.963v-366.496zM298.795 594.166c-8.674 0-17.264 1.709-25.277 5.030-8.013 3.318-15.294 8.186-21.426 14.323-6.132 6.134-10.994 13.418-14.31 21.434s-5.020 16.607-5.014 25.281c0 17.51 6.956 34.303 19.337 46.684s29.174 19.337 46.684 19.337c17.51 0 34.302-6.956 46.683-19.337 12.384-12.381 19.338-29.174 19.338-46.684 0-17.513-6.954-34.311-19.331-46.699-12.378-12.39-29.17-19.357-46.684-19.37v0zM782.4 177.558h-113.782v178.218c0 42.518-0.832 97.184-59.21 97.184-59.286 0-68.32-46.304-68.32-94.102v-181.312h-113.866v366.509h109.28v-50.048h1.555c15.213 28.8 52.374 59.187 107.798 59.187 115.264 0 136.554-75.882 136.554-174.602v-201.034h-0.010z" />
<glyph unicode="&#xe917;" glyph-name="logo-fuse" horiz-adv-x="993" d="M694.154 354.226l124.5-124.5-114.151-114.257-128.847 128.953v109.804h118.499zM868.848 512.571v-158.345h-174.694l-83 83.105 74.929 75.239h182.765zM124.121 354.226v158.345h183.388l75.237-75.239-83-83.105h117.567v-110.424l-128.847-128.332-114.151 114.257 125.018 124.5h-175.212zM575.656 512.571h110.428l132.571 133.191-114.151 114.153-128.847-129.364v-117.98zM417.314 512.571v118.499l-128.847 128.846-114.151-114.153 133.194-133.191h109.805zM575.656 630.551v175.211h-158.341v-174.693l79.583-79.587 78.758 79.068zM417.314 243.802v-182.768h158.341v183.389l-78.758 78.653-79.583-79.273z" />
<glyph unicode="&#xe918;" glyph-name="map-fill" horiz-adv-x="993" d="M496.488 805.762c-156.957-0.204-284.143-125.119-284.351-279.271 0-200.496 264.92-451.609 276.175-462.196 4.552-4.347 11.798-4.347 16.35 0 11.255 10.588 276.176 261.7 276.176 462.196-0.208 154.152-127.395 279.067-284.349 279.271zM496.488 398.491c-71.978 0-130.327 57.307-130.327 128 0 70.69 58.349 127.998 130.327 127.998s130.327-57.308 130.327-127.998c-0.043-70.678-58.368-127.96-130.327-128z" />
<glyph unicode="&#xe919;" glyph-name="map-outline" horiz-adv-x="993" d="M496.491 805.762c156.684-0.205 283.667-125.519 283.875-280.193 0-81.067-41.975-175.073-113.369-275.267l-4.698-6.544c-4.738-6.55-9.601-13.129-14.587-19.729-29.414-38.962-61.167-76.195-93.274-110.586l-2.653-2.833-5.232-5.545c-0.866-0.912-1.725-1.815-2.579-2.712l-5.080-5.297c-0.835-0.869-1.669-1.731-2.498-2.585l-4.909-5.042-4.794-4.866-4.667-4.689-3.072-3.056-2.908-2.87-6.191-6.020-2.762-2.638c-5.716-5.483-14.68-5.666-20.595-0.565l-1.080 0.999-4.44 4.264-4.053 3.959-4.425 4.375-3.873 3.873-4.732 4.779-4.85 4.952c-0.819 0.841-1.642 1.688-2.47 2.544l-5.024 5.213c-0.847 0.881-1.697 1.772-2.554 2.669l-5.182 5.464c-1.744 1.849-3.506 3.724-5.281 5.626-32.107 34.391-63.86 71.624-93.274 110.586-4.987 6.6-9.849 13.179-14.587 19.729l-4.698 6.544c-71.394 100.194-113.37 194.2-113.37 275.27 0.206 153.125 124.665 277.475 279.184 280.146l4.701 0.044zM496.482 798.392l-4.561-0.046c-150.531-2.601-271.74-123.705-271.941-272.777 0-86.106 48.991-188.252 131.165-297.097 29.249-38.741 60.838-75.782 92.781-109.996l5.253-5.598c0.869-0.918 1.731-1.834 2.591-2.737l5.101-5.353c0.844-0.878 1.679-1.75 2.513-2.613l4.94-5.101c0.813-0.835 1.623-1.663 2.427-2.482l4.766-4.841c0.782-0.791 1.561-1.576 2.337-2.352l5.353-5.343 4.27-4.202 5.964-5.778 1.542-1.465c3.060-2.935 7.947-2.935 11.025 0.019l4.108 3.932 3.379 3.292 4.27 4.202 5.353 5.343 4.704 4.751c0.794 0.807 1.595 1.62 2.399 2.442l4.884 5.011c0.822 0.85 1.651 1.707 2.482 2.572l5.052 5.266c0.85 0.894 1.704 1.794 2.563 2.7l5.207 5.514c0.875 0.934 1.753 1.874 2.638 2.821 31.943 34.214 63.531 71.255 92.781 109.996 82.174 108.845 131.165 210.991 131.165 297.090-0.199 149.078-121.409 270.182-271.94 272.783l-4.571 0.046zM496.488 655.988c72.949 0 132.108-58.378 132.108-130.421-0.043-72.021-59.175-130.374-132.108-130.417-72.952 0-132.112 58.38-132.112 130.42s59.159 130.418 132.112 130.418zM496.488 648.614c-68.903 0-124.736-55.101-124.736-123.044s55.833-123.044 124.733-123.044c68.884 0.040 124.695 55.116 124.736 123.044 0 67.944-55.833 123.044-124.733 123.044z" />
<glyph unicode="&#xe91a;" glyph-name="media-kit" horiz-adv-x="993" d="M659.388 792.922c12.049 0 21.817-10.072 21.817-22.497v-626.91c0-25.302 8.152-48.674 21.879-67.491h-469.874c-60.152 0-109.089 50.461-109.089 112.485v581.917c0 12.424 9.769 22.497 21.818 22.497h513.448zM566.297 229.004h-325.814c-12.049 0-21.818-10.072-21.818-22.497s9.769-22.497 21.818-22.497h325.814c12.049 0 21.821 10.072 21.821 22.497s-9.771 22.497-21.821 22.497zM566.297 492.966h-162.906c-12.049 0-21.817-10.072-21.817-22.497v-167.976c0-12.425 9.768-22.497 21.817-22.497h162.906c12.049 0 21.821 10.072 21.821 22.497v167.976c0 12.425-9.771 22.497-21.821 22.497zM310.301 360.982h-69.818c-12.049 0-21.818-10.069-21.818-22.494s9.769-22.497 21.818-22.497h69.818c12.048 0 21.819 10.072 21.819 22.497s-9.771 22.494-21.819 22.494zM544.483 447.972v-122.982h-119.274v122.982h119.274zM310.301 456.971h-69.818c-12.049 0-21.818-10.072-21.818-22.497s9.769-22.497 21.818-22.497h69.818c12.048 0 21.819 10.072 21.819 22.497s-9.771 22.497-21.819 22.497zM566.297 588.952h-325.814c-12.049 0-21.818-10.072-21.818-22.497s9.769-22.497 21.818-22.497h325.814c12.049 0 21.821 10.072 21.821 22.497s-9.771 22.497-21.821 22.497zM566.297 684.937h-325.814c-12.049 0-21.818-10.072-21.818-22.497s9.769-22.497 21.818-22.497h325.814c12.049 0 21.821 10.072 21.821 22.497s-9.771 22.497-21.821 22.497zM847.022 636.944h-122.179c0-509.766-0.074-493.444 0.13-493.444 1.88-31.406 22.699-57.512 50.821-66.358 44.982-14.156 91.105 19.397 92.973 68.018 0.115 0 0.074-11.239 0.074 469.287 0 12.425-9.771 22.497-21.821 22.497z" />
<glyph unicode="&#xe91b;" glyph-name="microphone" horiz-adv-x="993" d="M682.114 420.985l43.517-0.276c-0.382-61.899-24.384-120.035-67.584-163.691-38.043-38.44-87.046-61.673-139.804-66.693v-85.066h78.417v-44.224h-200.353v44.224h78.42v85.066c-52.758 5.021-101.764 28.253-139.804 66.693-43.2 43.657-67.204 101.792-67.585 163.691l43.515 0.276c0.639-103.377 83.912-187.479 185.633-187.479s184.993 84.101 185.629 187.479zM496.485 805.762c85.374 0 154.829-71.259 154.829-158.849v-16.359h-74.538v-43.942h74.538v-40.308h-74.538v-43.942h74.538v-40.308h-74.538v-43.942h74.538c-0.202-87.431-69.57-158.481-154.829-158.481s-154.63 71.050-154.829 158.481h74.538v43.942h-74.538v40.308h74.538v43.942h-74.538v40.308h74.538v43.942h-74.538v16.359c0 87.59 69.455 158.849 154.829 158.849z" />
<glyph unicode="&#xe91c;" glyph-name="minus" horiz-adv-x="993" d="M744.727 464.427h-496.485v-62.061h496.485v62.061z" />
<glyph unicode="&#xe91d;" glyph-name="more" horiz-adv-x="993" d="M416.69 433.397c0-46.657 35.8-84.629 79.791-84.629s79.791 37.972 79.791 84.629c0 46.66-35.8 84.632-79.791 84.632s-79.791-37.972-79.791-84.632zM416.69 145.666c0-46.66 35.8-84.632 79.791-84.632s79.791 37.972 79.791 84.632c0 46.657-35.8 84.623-79.791 84.623s-79.791-37.966-79.791-84.623zM416.69 721.132c0-46.658 35.8-84.623 79.791-84.623s79.791 37.965 79.791 84.623c0 46.658-35.8 84.63-79.791 84.63s-79.791-37.972-79.791-84.63z" />
<glyph unicode="&#xe91e;" glyph-name="one" d="M702.717 829.025h-185.619l-2.589-32.365c-2.333-23.311-7.29-37.895-13.667-43.327-6.122-5.215-20.298-8.48-42.122-8.855l-4.464-0.037h-132.97v-164.208l150.893 0.010 0.010-513.27h230.528v762.052zM684.598 810.919v-725.831h-194.304l0.006 513.258-150.912 0.013v127.981l119.565 0.028c25.757 0.442 43.472 4.522 53.635 13.178l1.878 1.737c9.77 9.768 15.466 27.617 18.080 53.756l1.261 15.881h150.79z" />
<glyph unicode="&#xe91f;" glyph-name="pause" horiz-adv-x="993" d="M496.485 805.762c205.65 0 372.364-166.712 372.364-372.365 0-205.65-166.713-372.364-372.364-372.364s-372.364 166.713-372.364 372.364c0 205.653 166.713 372.365 372.364 372.365zM651.636 588.549h-103.436v-310.303h103.436v310.303zM444.77 588.549h-103.436v-310.303h103.436v310.303z" />
<glyph unicode="&#xe920;" glyph-name="perseverence" horiz-adv-x="993" d="M605.864 531.391l262.985-470.357h-81.569l-222.202 397.414 40.786 72.943zM569.412 364.805l172.048-303.771h-617.339l172.046 303.771 70.338-36.929 66.29 34.807 66.287-34.807 70.33 36.929zM653.269 805.762l-58.923-88.594 58.923-88.594h-195.969v-60.689l93.004-167.188-48.804-26.093-66.287 35.437-66.296-35.437-48.814 26.093 93.004 167.188v237.877h240.162z" />
<glyph unicode="&#xe921;" glyph-name="play" horiz-adv-x="993" d="M496.485 805.762c205.65 0 372.364-166.712 372.364-372.365 0-205.65-166.713-372.364-372.364-372.364s-372.364 166.713-372.364 372.364c0 205.653 166.713 372.365 372.364 372.365zM409.035 565.983v-270.811l225.677 135.404-225.677 135.407z" />
<glyph unicode="&#xe922;" glyph-name="public-health" horiz-adv-x="993" d="M861.066 600.852c-12.406 48.55-38.841 90.416-76.456 121.068-36.644 29.858-81.529 46.305-126.393 46.305-34.397 0-67.205-9.244-97.519-27.471-23.937-14.399-45.472-33.981-64.276-58.424-42.778 55.651-99.257 85.895-161.724 85.895-44.846 0-89.715-16.446-126.352-46.305-37.602-30.653-64.034-72.512-76.438-121.062-9.097-35.61-13.239-85.582 4.71-145.687h112.711l40.699 81.253c3.699 7.376 11.25 12.040 19.511 12.040 8.266 0 15.819-4.664 19.511-12.040l73.955-147.627 73.955 147.627c3.696 7.376 11.245 12.040 19.512 12.040 8.26 0 15.813-4.664 19.512-12.040l40.699-81.253h151.962c12.049 0 21.811-9.747 21.811-21.771 0-12.027-9.762-21.777-21.811-21.777h-165.444c-8.263 0-15.813 4.664-19.512 12.040l-27.217 54.337-73.955-147.627c-3.699-7.379-11.248-12.034-19.512-12.034-8.266 0-15.816 4.655-19.512 12.034l-73.948 147.627-27.222-54.343c-3.699-7.37-11.25-12.034-19.511-12.034h-109.853c7.29-16.139 16.199-32.846 27.017-50.058 59.387-94.534 162.342-182.123 305.991-260.335 3.255-1.775 6.851-2.659 10.448-2.659s7.187 0.884 10.442 2.656c143.695 78.221 246.678 165.804 306.092 260.332 64.192 102.136 61.598 186.501 48.116 239.293z" />
<glyph unicode="&#xe923;" glyph-name="quote-left" horiz-adv-x="993" d="M430.545 727.566l40.727-150.955-4.254-0.090-8.325-0.239c-1.368-0.047-2.724-0.096-4.074-0.149l-7.969-0.354-7.727-0.431-7.491-0.509c-1.229-0.090-2.448-0.186-3.655-0.282l-7.131-0.627c-2.34-0.22-4.636-0.453-6.892-0.701l-6.656-0.779c-33.755-4.226-57.94-11.549-72.552-21.963-22.075-15.735-33.382-45.9-33.92-90.494l-0.021-3.37v-7.742h145.455v-309.648h-321.939v267.072l0.018 5.26c0.737 108.231 24.327 186.47 70.77 234.719 46.431 48.237 123.211 75.242 230.343 81.016l5.294 0.267zM828.121 727.566l40.727-150.955-4.254-0.090-8.325-0.239c-1.368-0.047-2.724-0.096-4.074-0.149l-7.965-0.354-7.73-0.431-7.491-0.509c-1.229-0.090-2.448-0.186-3.655-0.282l-7.131-0.627-6.892-0.701-6.653-0.779c-33.758-4.226-57.943-11.549-72.555-21.963-22.075-15.735-33.382-45.9-33.919-90.494l-0.022-3.37v-7.742h145.455v-309.648h-321.939v267.072l0.019 5.26c0.735 108.231 24.328 186.47 70.771 234.719 46.431 48.237 123.209 75.242 230.341 81.016l5.294 0.267zM419.3 712.031l-3.286-0.215c-98.4-6.677-168.37-32.224-210.374-75.862-42.671-44.33-65.15-117.291-66.554-219.313l-0.053-5.126-0.018-5.21v-252.177h292.15v279.859h-145.455v22.637c0 50.787 12.938 86.568 40.187 105.99 19.276 13.74 50.905 22.32 95.421 26.345l7.758 0.645c5.253 0.4 10.678 0.742 16.272 1.027l6.631 0.307-32.681 121.093zM816.882 712.031l-3.292-0.215c-98.4-6.677-168.37-32.224-210.373-75.862-42.673-44.33-65.151-117.291-66.554-219.313l-0.053-5.126-0.022-5.21v-252.177h292.15v279.859h-145.451v22.637c0 50.787 12.937 86.568 40.187 105.99 19.276 13.74 50.905 22.32 95.421 26.345l7.758 0.645c5.253 0.4 10.678 0.742 16.272 1.027l6.634 0.307-32.678 121.093z" />
<glyph unicode="&#xe924;" glyph-name="quote-right" horiz-adv-x="993" d="M562.424 139.23l-40.727 150.956 4.254 0.090 8.325 0.239c1.368 0.047 2.724 0.096 4.074 0.149l7.969 0.354 7.727 0.431 7.491 0.509c1.229 0.090 2.448 0.186 3.655 0.282l7.131 0.627c2.34 0.22 4.636 0.453 6.892 0.701l6.656 0.779c33.755 4.226 57.94 11.549 72.552 21.963 22.075 15.735 33.382 45.9 33.919 90.494l0.022 3.37v7.742h-145.455v309.65h321.939v-267.073l-0.019-5.26c-0.735-108.231-24.328-186.47-70.771-234.719-46.431-48.237-123.209-75.242-230.341-81.017l-5.294-0.267zM164.848 139.23l-40.727 150.956 4.253 0.090 8.327 0.239c1.368 0.047 2.726 0.096 4.074 0.149l7.967 0.354 7.729 0.431 7.49 0.509c1.228 0.090 2.447 0.186 3.655 0.282l7.131 0.627 6.893 0.701 6.653 0.779c33.757 4.226 57.943 11.549 72.555 21.963 22.074 15.735 33.381 45.9 33.919 90.494l0.020 3.37v7.742h-145.455v309.65h321.94v-267.073l-0.019-5.26c-0.735-108.231-24.328-186.47-70.771-234.719-46.431-48.237-123.21-75.242-230.341-81.017l-5.294-0.267zM573.67 154.767l3.286 0.214c98.4 6.678 168.37 32.225 210.373 75.863 42.673 44.33 65.151 117.291 66.554 219.313l0.053 5.126 0.019 5.21v252.178h-292.15v-279.86h145.455v-22.637c0-50.787-12.937-86.568-40.187-105.99-19.276-13.74-50.905-22.32-95.421-26.345l-7.758-0.645c-5.253-0.4-10.678-0.742-16.272-1.027l-6.631-0.307 32.681-121.093zM176.089 154.767l3.292 0.214c98.399 6.678 168.37 32.225 210.373 75.863 42.673 44.33 65.151 117.291 66.554 219.313l0.053 5.126 0.022 5.21v252.178h-292.149v-279.86h145.45v-22.637c0-50.787-12.937-86.568-40.188-105.99-19.274-13.74-50.905-22.32-95.419-26.345l-7.757-0.645c-5.256-0.4-10.68-0.742-16.274-1.027l-6.635-0.307 32.679-121.093z" />
<glyph unicode="&#xe925;" glyph-name="recruitment" horiz-adv-x="993" d="M667.105 193.151c20.803-18.873 48.327-30.298 78.106-30.298 30.065 0 57.505 11.463 78.178 30.245 27.726-22.692 45.459-57.161 45.459-95.701v-14.544c0-12.049-9.768-21.821-21.817-21.821h-203.636c-12.049 0-21.821 9.771-21.821 21.821v14.544c0 38.574 17.765 73.064 45.531 95.753zM298.82 295.992c16.646-24.129 37.585-45.068 61.712-61.713l-160.465-160.464c-17.041-17.039-44.67-17.039-61.71 0-17.042 17.042-17.042 44.671 0 61.713l160.463 160.464zM745.211 351.943c40.104 0 72.729-32.625 72.729-72.726s-32.625-72.729-72.729-72.729c-36.845 0-67.357 27.549-72.074 63.125 21.129 22.925 37.419 49.496 48.187 78.28 7.488 2.613 15.521 4.049 23.887 4.049zM496.485 366.49c44.113 0 79.999-35.887 79.999-79.999v-33.86c-24.446-10.951-51.523-17.051-79.999-17.051s-55.554 6.101-79.999 17.051v33.86c0 44.113 35.887 79.999 79.999 79.999zM496.485 628.308c108.274 0 196.363-88.089 196.363-196.363 0-61.456-28.387-116.401-72.726-152.433v6.979c0 45.338-24.548 85.032-61.037 106.552 15.254 15.723 24.672 37.137 24.672 60.72 0 48.122-39.151 87.273-87.273 87.273s-87.273-39.151-87.273-87.273c0-23.583 9.418-44.997 24.672-60.72-36.489-21.52-61.037-61.213-61.037-106.552v-6.979c-44.339 36.032-72.726 90.978-72.726 152.433 0 108.274 88.089 196.363 196.363 196.363zM496.485 497.397c24.101 0 43.638-19.537 43.638-43.635 0-24.101-19.537-43.638-43.638-43.638-24.098 0-43.635 19.537-43.635 43.638 0 24.098 19.537 43.635 43.635 43.635zM325.936 646.917c8.962-7.336 16.871-15.909 23.487-25.445-35.126-27.316-62.49-64.158-78.17-106.62h-125.314c-12.050 0-21.818 9.771-21.818 21.821v14.544c0 38.54 17.732 73.011 45.459 95.701 20.674-18.783 48.112-30.245 78.178-30.245s57.504 11.463 78.178 30.245zM823.389 646.917c27.726-22.692 45.459-57.161 45.459-95.701v-14.544c0-12.049-9.768-21.821-21.817-21.821h-125.316c-15.677 42.462-43.042 79.304-78.168 106.62 6.613 9.539 14.525 18.109 23.487 25.445 20.675-18.783 48.112-30.245 78.178-30.245s57.505 11.463 78.178 30.245zM175.030 733.035c0 40.102 32.625 72.727 72.727 72.727s72.726-32.626 72.726-72.727c0-40.102-32.625-72.727-72.726-72.727s-72.727 32.626-72.727 72.727zM672.486 733.035c0 40.102 32.625 72.727 72.726 72.727 40.104 0 72.729-32.626 72.729-72.727s-32.625-72.727-72.729-72.727c-40.1 0-72.726 32.626-72.726 72.727z" />
<glyph unicode="&#xe926;" glyph-name="results" horiz-adv-x="993" d="M496.485 805.762c66.405 0 130.138-17.29 186.107-49.702l5.57-3.292-47.802-47.802c-42.952 22.853-91.924 35.826-143.875 35.826-169.497 0-307.394-137.895-307.394-307.395 0-169.497 137.897-307.392 307.394-307.392s307.395 137.896 307.395 307.392c0 49.869-11.953 96.991-33.122 138.678l-2.693 5.182 47.799 47.802c34.524-57.288 52.984-123.051 52.984-191.662 0-99.461-38.732-192.968-109.062-263.301-70.33-70.327-163.84-109.062-263.301-109.062s-192.97 38.735-263.302 109.062c-70.329 70.333-109.062 163.84-109.062 263.301 0 99.465 38.733 192.971 109.062 263.304 70.332 70.329 163.841 109.062 263.302 109.062zM496.485 697.156c45.537 0 88.405-11.613 125.819-32.018l4.648-2.596 21.802-46.032-18.506-18.51c-36.529 29.743-83.096 47.6-133.762 47.6-117.009 0-212.202-95.195-212.202-212.204 0-117.006 95.193-212.201 212.202-212.201s212.201 95.195 212.201 212.201c0 48.972-16.682 94.115-44.653 130.064l-2.932 3.686 18.51 18.506 46.049-21.808c21.997-38.493 34.583-83.025 34.583-130.448 0-145.436-118.322-263.754-263.758-263.754s-263.757 118.319-263.757 263.754c0 145.439 118.321 263.759 263.757 263.759zM496.485 601.963c37.084 0 71.404-12.046 99.266-32.417l3.451-2.591-36.883-36.883c-18.77 12.822-41.438 20.337-65.834 20.337-64.518 0-117.009-52.491-117.009-117.012 0-64.518 52.491-117.009 117.009-117.009s117.009 52.491 117.009 117.009c0 22.956-6.653 44.38-18.119 62.467l-2.206 3.351 36.886 36.883c21.929-28.455 34.996-64.078 34.996-102.701 0-92.945-75.618-168.563-168.566-168.563s-168.566 75.615-168.566 168.563c0 92.951 75.618 168.566 168.566 168.566zM496.485 506.771c11.075 0 21.575-2.476 30.996-6.892l3.1-1.542-49.512-49.512 30.857-30.857 49.509 49.509c5.368-10.19 8.425-21.783 8.425-34.081 0-40.457-32.917-73.371-73.374-73.371s-73.374 32.914-73.374 73.371c0 40.46 32.917 73.374 73.374 73.374zM752.538 755.436l21.212-44.787 44.786-21.21-82.314-82.313-44.786 21.212-21.209 44.785 82.311 82.313z" />
<glyph unicode="&#xe927;" glyph-name="search" horiz-adv-x="993" d="M453.809 764.549c182.083 0 329.688-147.608 329.688-329.687 0-54.806-13.371-106.484-37.028-151.955l110.31-110.313c16.095-16.095 16.095-42.183 0-58.275-16.092-16.095-42.186-16.095-58.281 0l-99.793 99.809c-60.342-66.904-147.707-108.957-244.894-108.957-182.081 0-329.688 147.608-329.688 329.691 0 182.080 147.606 329.687 329.688 329.687zM453.809 671.824c-130.87 0-236.963-106.092-236.963-236.963 0-130.873 106.093-236.963 236.963-236.963 64.295 0 124.267 25.628 168.414 70.256l7.624 8.071 20.374 22.637 13.988 26.844c15.444 29.684 24.421 62.312 26.224 96.337l0.338 12.819c0 130.87-106.090 236.963-236.963 236.963z" />
<glyph unicode="&#xe928;" glyph-name="star" d="M361.618 576.016v229.747l143.655-159.733 143.137 159.733-2.076-230.265 230.267 1.040-146.249-143.14 146.249-143.655-229.227 1.558v-230.267l-143.137 138.991-144.176-135.879v226.115h-228.189l159.732 143.137-159.732 142.618h229.747z" />
<glyph unicode="&#xe929;" glyph-name="state" d="M837.39 182.874c-4.993-8.18-14.237-11.37-10.625-22.525 10.386-7.134 20.064-15.248 28.902-24.225 6.163-5.207 24.12-22.419 2.976-18.913-12.009 1.911-18.063 21.25-27.626 27.412-13.070 8.288-21.25-3.717-36.656-4.887-1.486 7.649 6.904 31.877-9.458 29.327-10.625-1.489-13.601-26.671-15.301-35.17-0.394-6.333-1.98-12.533-4.673-18.277-5.843-7.649-9.883-2.762-16.787-6.799-6.907-4.037-13.601-28.902-22.953-12.961-2.762 4.568 4.996 10.625 0 13.706-2.762 2.122-18.063-4.146-21.994-4.465-9.56-0.85-26.137 7.013-34.211 1.806-13.815-8.924-3.401-24.967-26.351-14.662-9.967 5.281-20.738 8.868-31.877 10.625-13.706 0.245-27.195 3.472-39.526 9.458-21.25 12.22-2.551 17.318 9.989 29.538-14.24 13.92-38.251 16.682-59.715 17.957-0.838 4.354-0.394 8.853 1.275 12.961-16.046 6.907-30.388-7.649-45.903-2.551-7.863 2.551-8.285 9.142-18.063 8.077-6.479-0.636-11.795-7.118-17.743-9.138-11.9-4.037-14.131 0-25.29 4.782-9.058 2.867-18.78 2.867-27.837 0-16.772-1.527-33.674-0.813-50.257 2.122-8.617 1.347-17.060 3.627-25.181 6.802-7.758 3.081-12.008 11.264-18.384 14.131-11.794 5.101-38.464-5.738-51.533-8.074-21.25-3.826-41.864-5.312-62.264-9.349 0.435 0.717 0.934 1.39 1.488 2.020 1.7 2.231 4.038 4.568 5.738 6.799s1.7 2.867 2.231 4.037l3.4 3.401c2.619 5.486 3.614 11.602 2.87 17.635-0.267 2.65-0.267 5.322 0 7.972 0.531 3.401 3.931 5.632 5.738 8.499 3.064 5.57 4.255 11.978 3.4 18.277 0 6.799-6.907 11.9-10.626 17.638-3.709 5.173-5.881 11.286-6.268 17.638 0.638 6.163 8.606 10.628 10.625 16.471 0.506 6.197-0.477 12.428-2.868 18.168-1.684 6.659-1.086 13.694 1.699 19.977 1.096 3.631 2.446 7.18 4.038 10.625 2.054 3.022 3.765 6.265 5.1 9.666 1.198 6.197 1.767 12.499 1.699 18.807 0.638 3.401 4.038 4.568 5.738 7.332 1.174 3.115 1.174 6.554 0 9.669-1.543 6.414-4.012 12.573-7.331 18.277-1.393 2.904-2.532 5.927-3.401 9.030-0.586 3.233-0.586 6.544 0 9.778 2.632 9.427 3.603 19.242 2.869 29.007-1.497 6.355-4.242 12.347-8.076 17.635-3.4 5.632-8.5 9.669-11.9 15.301-1.7 2.87-3.4 6.268-5.1 9.138-1.7 2.867-3.932 4.568-5.738 7.438-2.482 4.67-4.374 9.632-5.632 14.767-1.169 4.571 0.001 10.628-2.868 14.24-5.419 6.588-9.138 7.863-10.626 17.638s-2.549 7.118-7.969 12.645c-7.831 7.249-12.744 17.113-13.813 27.732l-2.868 163.629 428.626 17.427c0.748-4.107 2.259-8.037 4.462-11.583 4.248-3.294 13.812 5.632 14.981-4.569 0-5.631-11.264-12.536-12.645-17.105-1.728-11.98-0.856-24.194 2.551-35.809 7.227-11.475 18.699 2.975 26.137-2.55s-4.143-21.888-5.949-26.457c-2.281-4.206-3.451-8.923-3.401-13.706 0.956-6.375 4.887-5.737 6.482-10.625 2.752-7.961 0.543-16.798-5.632-22.526-2.442-3.295-7.118-5.312-9.138-9.349-2.973-6.057 0-8.288 0-13.706 0-11.475-4.248-8.819-13.386-14.77-9.138-5.949-5.101-15.298-11.584-21.25-6.479-5.949-15.298-1.806-16.893-12.75-0.369-2.963-0.369-5.961 0-8.924 11.475 1.806 9.775-4.36 4.357-9.564-5.418-5.207-18.488-8.077-17.107-17.957 1.17-8.074 12.856-4.996 6.057-13.92-6.802-8.924-17.321-4.354-10.625-18.593 3.717-7.863 11.686-8.077 2.337-17.213-11.795-11.584-17.852-10.625-13.706-27.626 2.724-11.897 4.288-24.033 4.673-36.234 9.861-0.72 19.776-0.003 29.432 2.129l178.825 11.686c16.046 0.956 39.737 7.227 55.569 3.612 15.832-3.612 4.357-24.65-1.381-36.656-4.248-7.314-5.756-15.903-4.248-24.225 2.126-5.846 7.543-9.883 10.625-15.94s2.231-10.625 9.458-15.618c5.523-4.251 12.431-7.224 17.638-11.9 6.845-6.464 11.239-15.102 12.431-24.439 0-3.506-1.061-10.625 0.636-13.492 1.7-2.87 9.458-3.721 12.645-4.996 7.45-3.199 14.041-8.114 19.233-14.345-1.784-6.132-5.073-11.717-9.564-16.257 6.907-8.924 25.29-5.738 30.919-13.495 8.077-11.366-11.581-21.25-18.913-26.878-10.836-8.397-12.006-16.787-18.382-27.415z" />
<glyph unicode="&#xe92a;" glyph-name="team" d="M544.185 481.444c71.692 0 130.032-57.567 131.866-129.278l0.043-3.482v-177.015c0-14.019-10.814-25.513-24.498-26.484l-1.884-0.068h-281.408c-13.93 0-25.349 10.885-26.317 24.657l-0.065 1.896v177.015c0 72.155 57.201 130.87 128.45 132.717l3.46 0.043h70.352zM782.668 404.57c50.905 0 92.34-40.994 93.885-92.169l0.047-2.963v-138.377c0-13.697-10.501-24.927-23.791-25.879l-1.828-0.065h-150.907c3.227 6.873 5.201 14.485 5.644 22.491l0.093 3.454v172.969c0 20.62-3.755 40.374-10.622 58.57 4.946 1.024 10.045 1.669 15.245 1.89l3.916 0.081h68.316zM294.117 404.57c6.558 0 12.979-0.692 19.162-1.97-6.865-18.196-10.622-37.95-10.622-58.57v-172.969c0-9.269 2.049-18.091 5.738-25.944h-150.906c-14.141 0-25.618 11.624-25.618 25.944v138.377c0 52.547 42.047 95.133 93.932 95.133h68.314zM752.479 615.976c52.73 0 95.477-43.024 95.477-96.095s-42.747-96.092-95.477-96.092c-52.733 0-95.48 43.020-95.48 96.092s42.747 96.095 95.48 96.095zM255.993 615.976c52.731 0 95.478-43.024 95.478-96.095s-42.747-96.092-95.478-96.092c-52.731 0-95.478 43.020-95.478 96.092s42.747 96.095 95.478 96.095zM504.236 721.68c63.277 0 114.573-51.627 114.573-115.314 0-63.683-51.296-115.312-114.573-115.312s-114.573 51.628-114.573 115.312c0 63.686 51.296 115.314 114.573 115.314z" />
<glyph unicode="&#xe92b;" glyph-name="three" d="M524.221 832c-77.034 0-141.264-20.172-192.362-60.599-49.45-39.121-81.947-93.203-97.427-161.9l-3.399-15.786 197.959-40.419 0.755 10.010c2.368 31.37 10.634 54.573 24.493 69.846 13.587 14.975 32.003 22.452 55.894 22.452 21.133 0 36.87-4.972 47.606-14.633 10.538-9.484 15.853-23.036 15.853-41.314 0-20.96-7.101-35.68-21.414-45.226-14.358-9.571-37.52-14.835-69.408-15.37l-5.578-0.048h-72.63v-157.613h89.606c36.624 0 62.768-5.318 78.259-15.459 14.582-9.542 21.824-24.554 21.824-46.122 0-24.038-6.365-41.747-18.867-53.706-12.573-12.026-31.674-18.205-57.738-18.205-30.88 0-53.875 8.515-69.597 25.36-15.203 16.288-24.698 41.754-28.157 76.605l-1.382 15.507-208.356-46.186 1.035-8.022c10.304-79.856 42.893-141.306 97.729-183.811 54.593-42.317 128.014-63.363 219.995-63.363 85.786 0 154.73 20.781 206.512 62.528 52.189 42.080 78.419 98.307 78.419 167.936 0 47.133-13.232 86-39.766 116.182l-3.354 3.696c-20.499 21.875-47.67 38.4-81.402 49.619l-5.51 1.766 4.65 2.077c26.621 12.442 48.282 29.568 64.88 51.366 22.189 29.146 33.27 64.528 33.27 105.84 0 63.415-24.080 114.204-71.955 151.588-47.395 37.006-110.966 55.4-190.438 55.4zM524.221 814.303c75.782 0 135.539-17.29 179.546-51.652 43.523-33.984 65.149-79.603 65.149-137.64 0-37.568-9.894-69.171-29.648-95.12-19.814-26.022-47.837-44.701-84.333-56.070l-6.218-1.936v-15.427l13.075-3.021c43.392-10.499 76.333-28.694 98.995-54.474 23.549-26.787 35.363-61.482 35.363-104.499 0-64.339-23.856-115.478-71.83-154.157-48.384-39.011-113.414-58.611-195.405-58.611-88.317 0-157.946 19.958-209.152 59.654l-4.576 3.638c-45.194 36.89-73.333 88.403-84.448 154.944l-0.876 5.52 172.889 38.31 0.88-6.81c4.704-32.938 15.114-58.221 31.482-75.757 19.338-20.72 47.053-30.982 82.534-30.982 30.275 0 53.744 7.59 69.971 23.11 16.294 15.59 24.33 37.946 24.33 66.496 0 27.261-9.974 47.933-29.827 60.928l-2.918 1.811c-18.973 11.165-47.27 16.538-85.034 16.538l-71.923 0.006v122.218l60.746 0.045c35.050 0.589 61.334 6.563 79.005 18.342 19.488 12.992 29.293 33.328 29.293 59.949 0 23.040-7.206 41.416-21.712 54.469-14.304 12.876-34.25 19.174-59.443 19.174-28.698 0-51.914-9.427-68.998-28.258l-2.595-2.995c-13.52-16.346-21.92-38.602-25.376-66.628l-0.093-0.797-160.94 32.845-0.418-1.776c14.598 64.782 44.956 115.304 91.124 151.829 47.814 37.827 108.163 56.781 181.382 56.781z" />
<glyph unicode="&#xe92c;" glyph-name="triangle-backward" d="M317.307 433.397l373.859-372.364v744.729l-373.859-372.365z" />
<glyph unicode="&#xe92d;" glyph-name="triangle-down" d="M504.236 246.471l372.364 373.859h-744.729l372.365-373.859z" />
<glyph unicode="&#xe92e;" glyph-name="triangle-forward" d="M691.166 433.397l-373.859-372.364v744.729l373.859-372.365z" />
<glyph unicode="&#xe92f;" glyph-name="triangle-outline-forward" d="M461.973 805.762l374.647-372.365-374.647-372.364v288.358l-290.124-288.358v744.729l290.124-288.357v288.357zM177.331 792.583v-718.368l284.642 282.903v152.56l-284.642 282.904zM467.456 792.586v-280.626l79.040-78.563-79.040-78.559v-280.623l361.388 359.182-361.388 359.189zM467.456 504.23v-141.663l71.264 70.83-71.264 70.833z" />
<glyph unicode="&#xe930;" glyph-name="tumblr" d="M821.334 832h-618.668c-41.067 0-74.667-33.6-74.667-74.667v-618.668c0-41.066 33.6-74.666 74.667-74.666h618.668c41.066 0 74.666 33.6 74.666 74.666v618.668c0 41.067-33.6 74.667-74.666 74.667zM690.294 190.166c-24.736-11.648-47.136-19.853-67.181-24.534-20.051-4.694-41.738-7.030-65.043-7.030-26.445 0-49.837 3.341-70.176 10.016-20.333 6.688-37.677 16.237-52.032 28.566-14.368 12.384-24.32 25.536-29.856 39.478-5.549 13.92-8.32 34.112-8.32 60.563v203.021h-63.981v81.898c22.733 7.392 42.23 17.974 58.432 31.776 16.211 13.779 29.485 30.681 39.030 49.696 9.824 19.317 16.566 43.915 20.256 73.771h82.326v-146.292h137.354v-90.861h-137.354v-148.435c0-33.549 1.77-55.085 5.331-64.63 3.542-9.526 10.166-17.13 19.821-22.816 12.8-7.67 27.443-11.52 43.936-11.52 29.29 0 58.442 9.536 87.443 28.598v-91.264h0.013z" />
<glyph unicode="&#xe931;" glyph-name="twitter" d="M896 694.115c-28.755-12.739-59.258-21.097-90.49-24.795 32.896 19.684 57.514 50.658 69.267 87.15-30.925-18.357-64.762-31.284-100.048-38.219-14.742 15.724-32.557 28.253-52.339 36.811s-41.11 12.961-62.666 12.938c-87.011 0-157.565-70.534-157.565-157.565 0-12.336 1.398-24.374 4.090-35.914-130.954 6.573-247.046 69.307-324.761 164.644-14.012-24.047-21.375-51.389-21.334-79.22-0.020-25.942 6.367-51.488 18.596-74.365 12.228-22.88 29.919-42.384 51.499-56.778-25.017 0.794-49.482 7.549-71.361 19.706-0.020-0.656-0.020-1.306-0.020-1.984 0-76.317 54.307-140 126.376-154.49-23.206-6.285-47.537-7.203-71.152-2.694 20.047-62.586 78.233-108.154 147.181-109.43-55.813-43.802-124.735-67.558-195.683-67.453-12.716 0-25.253 0.739-37.591 2.205 72.043-46.288 155.889-70.858 241.523-70.774 289.811 0 448.294 240.077 448.294 448.266 0 6.822-0.16 13.635-0.461 20.406 30.864 22.282 57.498 49.902 78.643 81.555v0z" />
<glyph unicode="&#xe932;" glyph-name="two" d="M529.139 831.982l-7.482 0.018c-93.664-0.014-168.803-28.498-224.828-85.506-54.482-55.438-83.905-131.748-88.4-228.494l-0.617-15.674 216.472-36.422-0.253 10.851c-1.232 53.069 5.946 92.774 21.162 119.034 14.566 25.136 36.189 37.408 66.010 37.408 21.078 0 36.893-6.186 48.099-18.486 11.366-12.474 17.174-30.467 17.174-54.4 0-31.066-9.85-60.166-29.702-87.539-17.187-23.696-46.934-52.090-89.174-84.992l-11.827-9.085-12.259-9.168-224.446-161.562v-143.965h607.124v187.366l-255.888 0.003 52.221 37.011c69.984 49.44 119.77 96.323 149.344 140.848 29.846 44.938 44.806 94.413 44.806 148.214 0 77.359-26.093 139.619-78.192 186.112-50.378 44.956-116.96 67.722-199.344 68.427zM521.741 814.048c81.654 0.619 146.438-20.721 194.797-63.876 48.163-42.979 72.198-100.332 72.198-172.729 0-50.269-13.914-96.291-41.811-138.288-28.17-42.413-76.422-87.856-144.762-136.131l-98.182-69.597 294.275 0.003v-151.478h-571.261v116.822l223.351 160.912c53.21 39.786 90.15 73.875 110.95 102.554 22.029 30.371 33.12 63.139 33.12 98.070 0 28.099-7.2 50.4-21.853 66.483-14.81 16.254-35.485 24.342-61.36 24.342-36.176 0-63.731-15.644-81.53-46.352l-2.093-3.766c-14.317-26.848-21.44-63.808-21.619-110.938l0.006-2.899-179.618 30.048c4.299 92.515 32.101 164.621 83.273 216.691 52.483 53.405 122.975 80.128 212.118 80.129z" />
<glyph unicode="&#xe933;" glyph-name="video" d="M854.779 750.598h-701.090c-12.051 0-21.818-9.966-21.818-22.263v-589.871c0-12.297 9.767-22.264 21.818-22.264h701.090c12.052 0 21.821 9.967 21.821 22.264v589.871c0 12.296-9.768 22.263-21.821 22.263zM411.933 358.664v149.47c0 10.693 5.98 20.437 15.599 25.436 9.771 5.073 21.662 4.394 30.708-1.648l124.841-74.358c0.636-0.379 1.251-0.791 1.846-1.229 7.382-5.486 11.615-13.846 11.615-22.934 0-9.092-4.233-17.451-11.615-22.934-0.596-0.441-1.21-0.853-1.846-1.229l-124.841-74.361c-4.999-3.333-10.858-5.033-16.756-5.033-4.779 0-9.576 1.12-13.951 3.392-9.626 4.993-15.599 14.739-15.599 25.429zM644.208 667.311v38.761h73.21v-38.761h-73.21zM600.57 667.311h-73.216v38.761h73.216v-38.761zM483.719 667.311h-73.213v38.761h73.213v-38.761zM366.871 667.311h-73.21v38.761h73.21v-38.761zM366.871 199.488v-38.763h-73.21v38.763h73.21zM410.506 199.488h73.213v-38.763h-73.213v38.763zM527.354 199.488h73.216v-38.763h-73.216v38.763zM644.208 199.488h73.21v-38.763h-73.21v38.763zM832.962 667.311h-71.91v38.761h71.91v-38.761zM250.024 706.072v-38.761h-74.517v38.761h74.517zM175.508 199.488h74.517v-38.763h-74.517v38.763zM761.052 160.725v38.763h71.91v-38.763h-71.91z" />
<glyph unicode="&#xe934;" glyph-name="vimeo" d="M821.846 832h-619.692c-40.789 0-74.155-33.365-74.155-74.155v-619.692c0-40.787 33.365-74.154 74.155-74.154h619.692c40.787 0 74.154 33.366 74.154 74.154v619.692c0 40.789-33.366 74.155-74.154 74.155zM772.374 588.246c-6.029-31.341-46.016-141.005-118.477-237.837-31.68-40.915-68.714-81.107-116.234-108.864-17.526-10.24-52.192-23.168-75.222-13.504-16.128 6.71-28.499 20.854-38.41 38.582-17.834 31.978-27.488 75.702-35.862 108.864-7.731 30.41-14.986 59.286-24.435 85.718-5.504 15.52-8.854 31.219-15.254 46.131h-0.022l-0.723 1.11c0.211-0.32 0.435-0.63 0.65-0.97-1.776 4.214-3.83 8.304-6.154 12.243-18.134 30.166-44.086 1.174-71.318 5.133-7.349 1.066-12.917 6.346-16.523 11.955-2.069 3.213 1.611 6.528-9.056 9.216v2.934c42.667 31.104 76.481 68.854 122.241 95.349 14.346 8.341 39.85 17.792 59.635 12.043 15.574-4.501 29.773-18.976 37.421-40.022h0.019c1.398 0 2.637-6.944 3.629-10.048 7.626-23.616 11.722-53.792 15.603-76.736 6.157-36.128 5.133-92.064 25.76-123.626h0.022c2.72 0 5.802-7.318 9.334-11.072 33.802-35.68 59.594 14.506 73.363 39.722 11.904 21.888 22.56 45.005 24.406 65.837 1.056 11.808 0.48 21.376-1.6 28.787-5.898 21.046-24.054 26.093-52.49 25.12-3.629-0.128-7.405-0.288-11.35-0.595 25.856 79.219 101.898 112.319 124.352 115.711 27.658 4.16 67.968 3.328 86.922-20.341 3.667-4.585 6.518-9.766 8.429-15.318 4.864-14.003 4.17-29.92 1.344-45.523v0z" />
<glyph unicode="&#xe935;" glyph-name="volume" horiz-adv-x="993" d="M634.954 585.883c-10.386 10.662-27.217 10.662-37.593 0-10.38-10.662-10.38-27.949 0-38.617 60.627-62.287 60.627-163.641 0-225.935-10.38-10.662-10.38-27.955 0-38.617 5.188-5.331 11.993-8 18.792-8 6.805 0 13.604 2.669 18.792 8 81.358 83.586 81.358 219.583 0.009 303.169zM744.327 692.298c-11.062 10.635-29.001 10.635-40.060 0-11.069-10.628-11.069-27.865 0-38.493 61.021-58.631 94.624-136.589 94.624-219.508 0-82.925-33.603-160.874-94.624-219.505-11.062-10.628-11.062-27.865 0-38.493 5.53-5.315 12.784-7.975 20.030-7.975s14.497 2.653 20.030 7.975c71.727 68.912 111.222 160.535 111.222 257.998 0 97.46-39.495 189.089-111.222 258.001zM541.417 806.662v-744.729l-217.814 216.502v-2.579h-186.182v319.168h186.182v-4.81l217.814 216.447z" />
<glyph unicode="&#xe936;" glyph-name="why-works-1" horiz-adv-x="993" d="M713.235 577.375v-474.065h155.614v474.065h-155.614zM768.717 490.114h43.762v-42.521h-43.762v42.521zM812.479 255.668h-43.762v42.518h43.762v-42.518zM813.084 351.632h-43.762v42.518h43.762v-42.518zM713.557 688.057h155.291v-68.168h-155.291v68.168zM124.124 732.189l-0.002-628.879h155.612l0.002 585.373-155.612 43.507zM180.103 589.324h43.562v-42.816h-43.562v42.816zM223.709 256.605h-43.56v42.816h43.56v-42.816zM223.709 353.237h-43.56v42.819h43.56v-42.819zM223.987 449.874h-43.562v42.816h43.562v-42.816zM478.472 220.954v-117.645h-42.512v117.645h42.512zM668.771 765.288v-661.979h-62.771v160.427h-212.548v-160.427h-58.138v661.979h333.458zM563.489 220.954v-117.645h-42.508v117.645h42.508zM435.96 418.819h-42.508v-90.909h42.508v90.909zM520.98 418.819h-42.508v-90.909h42.508v90.909zM606 418.819h-42.512v-90.909h42.512v90.909zM435.96 552.507h-42.508v-90.906h42.508v90.906zM520.98 552.507h-42.508v-90.906h42.508v90.906zM606 552.507h-42.512v-90.906h42.512v90.906zM435.96 686.2h-42.508v-90.912h42.508v90.912zM520.98 686.2h-42.508v-90.912h42.508v90.912zM606 686.2h-42.512v-90.912h42.512v90.912z" />
<glyph unicode="&#xe937;" glyph-name="youtube" d="M879.92 623.629c-4.349 15.51-12.819 29.552-24.509 40.634-12.022 11.422-26.755 19.593-42.813 23.741-60.086 15.838-300.822 15.838-300.822 15.838-100.358 1.142-200.695-3.88-300.439-15.038-16.056-4.454-30.762-12.808-42.81-24.317-11.838-11.39-20.413-25.437-24.893-40.826-10.76-57.968-15.988-116.829-15.614-175.786-0.384-58.902 4.831-117.744 15.614-175.782 4.383-15.328 12.926-29.309 24.797-40.605 11.87-11.293 26.652-19.453 42.906-23.773 60.888-15.805 300.439-15.805 300.439-15.805 100.486-1.142 200.95 3.878 300.822 15.037 16.058 4.147 30.79 12.32 42.813 23.741 11.686 11.082 20.144 25.123 24.477 40.637 11.040 57.946 16.41 116.829 16.029 175.814 0.829 59.238-4.531 118.4-15.997 176.522v-0.032zM435.242 338.323v219.075l200.294-109.555-200.294-109.52z" />
</font>
</defs>
</svg>
